# xmcd CD database file
#
# Track frame offsets:
#	150
#	12520
#	27068
#	39355
#	50415
#	64298
#	76053
#	90283
#	100168
#	112160
#	124455
#	136610
#	149140
#	165130
#	177995
#	190703
#	203718
#	215908
#	229730
#	241355
#	252228
#	263505
#	276240
#	292133
#	304093
#	314833
#
# Disc length: 4388 seconds
#
# Revision: 3
# Processed by: cddbd v1.5.1PL0 Copyright (c) Steve Scherf et al.
# Submitted via: CDex 1.50Beta7
#
DISCID=7b11221a
DTITLE=Various Artist - Chess Blues [CD3: 1954-1960)
DYEAR=1992
DGENRE=Blues
TTITLE0=Little Walter - Mellow Down Easy
TTITLE1=Muddy Waters - My Eyes (Keep Me In Trouble)
TTITLE2=Little Walter - My Babe
TTITLE3=Billy Boy Arnold - You Got To Love Me
TTITLE4=Willie DIxon - Walking The Blues
TTITLE5=Sonny Boy Williamson - Don't Start Me To Talkin'
TTITLE6=Howlin' Wolf - Smokestack Lightnin'
TTITLE7=Willie Dixon - 29 Ways
TTITLE8=Paul Gayten and Myrtle Jones - Right To Love You
TTITLE9=Jimmy Witherspoon - Ain't Nobody's Business
TTITLE10=Otis Spann - I'm Leaving You
TTITLE11=Howlin' Wolf - Break Of Day
TTITLE12=Floyd Dixon - Please Don't Go
TTITLE13=Sonny Boy Williamson - Keep It To Yourself
TTITLE14=Jimmy Rogers - Walking By Myself
TTITLE15=Muddy Waters - Got My Mojo Working
TTITLE16=Sonny Boy Williamson - Fattening Frogs For Snakes (Alternate)
TTITLE17=Lafayette Leake - Slow Leake
TTITLE18=Howlin' Wolf - Sitting On Top Of The World
TTITLE19=J. B. Lenoir - She Don't Know
TTITLE20=Sonny Boy Williamson - Your Funeral And My Trial
TTITLE21=Little Walter - Key To The Highway
TTITLE22=Muddy Waters - Double Trouble (Alternate)
TTITLE23=Eddie Boyd - Come On Home
TTITLE24=Sonny Boy Williamson - The Goat (Band Track)
TTITLE25=Otis Rush - So Many Roads, So Many Trains
EXTD=YEAR: 1992
EXTT0=
EXTT1=
EXTT2=
EXTT3=
EXTT4=
EXTT5=
EXTT6=
EXTT7=
EXTT8=
EXTT9=
EXTT10=
EXTT11=
EXTT12=
EXTT13=
EXTT14=
EXTT15=
EXTT16=
EXTT17=
EXTT18=
EXTT19=
EXTT20=
EXTT21=
EXTT22=
EXTT23=
EXTT24=
EXTT25=
PLAYORDER=
